<svg width="20" height="16" viewBox="0 0 20 16" fill="none" xmlns="http://www.w3.org/2000/svg">
<path d="M14.7566 0.546875C13.0468 0.546875 11.2055 0.897603 9.93407 1.8621C8.66268 0.897603 6.82136 0.546875 5.11157 0.546875C3.40177 0.546875 1.56045 0.897603 0.289062 1.8621V14.7075C0.289062 15.2774 0.92914 15.1021 0.946677 15.1021C2.13038 14.5321 3.84018 14.1376 5.11157 14.1376C6.82136 14.1376 8.66268 14.4883 9.93407 15.4528C11.1178 14.7075 13.266 14.1376 14.7566 14.1376C16.2033 14.1376 17.6939 14.4006 18.9215 15.0582C19.281 15.2424 19.5791 14.8916 19.5791 14.6637V1.8621C18.2726 0.880066 16.3962 0.546875 14.7566 0.546875ZM17.8254 12.8223C16.8609 12.5155 15.8088 12.3839 14.7566 12.3839C13.266 12.3839 11.1178 12.9539 9.93407 13.6992V3.61574C11.1178 2.87045 13.266 2.30051 14.7566 2.30051C15.8088 2.30051 16.8609 2.43204 17.8254 2.73892V12.8223Z" fill="#C1C1C1"/>
</svg>
