<svg width="69" height="48" viewBox="0 0 69 48" fill="none" xmlns="http://www.w3.org/2000/svg">
<path d="M28.2466 17.5H38.2189V20H28.2466V17.5ZM28.2466 12.5H38.2189V15H28.2466V12.5ZM35.7259 0H25.7536C24.3824 0 23.2605 1.125 23.2605 2.5V22.5C23.2605 23.875 24.3699 25 25.7411 25H40.712C42.0832 25 43.2051 23.875 43.2051 22.5V7.5L35.7259 0ZM40.712 22.5H25.7536V2.5H34.4793V8.75H40.712V22.5Z" fill="#666666"/>
<path d="M10.094 32.436H11.466V45.078H10.094V38.652H8.596V44.448H7.238V32.688H8.596V37.462H10.094V32.436ZM2.716 33.892V40.654C3.276 40.6353 3.85933 40.6027 4.466 40.556C5.07267 40.5 5.726 40.4067 6.426 40.276L6.58 41.508C5.73067 41.6667 4.942 41.7693 4.214 41.816C3.486 41.8627 2.786 41.886 2.114 41.886H1.274V33.892H2.716ZM25.3058 32.436H26.6918V45.078H25.3058V32.436ZM22.7578 35.852V32.744H24.1018V44.462H22.7578V40.206H20.6858V39.03H22.7578V37.028H20.9098C20.6204 38.1013 20.1304 39.0907 19.4398 39.996C18.7584 40.892 17.8204 41.6947 16.6258 42.404L15.7998 41.382C17.1158 40.5887 18.0958 39.6833 18.7398 38.666C19.3931 37.6393 19.7711 36.468 19.8738 35.152H16.4158V33.99H21.3018C21.3018 34.3167 21.2878 34.634 21.2598 34.942C21.2411 35.25 21.2084 35.5533 21.1618 35.852H22.7578ZM39.9627 35.432H38.2127V36.958H39.9627V38.148H38.2127V39.926H36.7707V32.436H38.2127V34.242H39.9627V35.432ZM35.2307 36.202C35.2307 36.65 35.1467 37.0607 34.9787 37.434C34.8107 37.8073 34.5727 38.1293 34.2647 38.4C33.966 38.6613 33.6113 38.8667 33.2007 39.016C32.79 39.1653 32.342 39.24 31.8567 39.24C31.3807 39.24 30.9373 39.1653 30.5267 39.016C30.116 38.8667 29.7567 38.6613 29.4487 38.4C29.15 38.1293 28.9167 37.8073 28.7487 37.434C28.5807 37.0607 28.4967 36.65 28.4967 36.202C28.4967 35.754 28.5807 35.3433 28.7487 34.97C28.9167 34.5967 29.15 34.2793 29.4487 34.018C29.7567 33.7473 30.116 33.5373 30.5267 33.388C30.9373 33.2387 31.3807 33.164 31.8567 33.164C32.342 33.164 32.79 33.2387 33.2007 33.388C33.6113 33.5373 33.966 33.7473 34.2647 34.018C34.5727 34.2793 34.8107 34.5967 34.9787 34.97C35.1467 35.3433 35.2307 35.754 35.2307 36.202ZM29.9107 36.202C29.9107 36.762 30.0927 37.2053 30.4567 37.532C30.83 37.8587 31.2967 38.022 31.8567 38.022C32.426 38.022 32.8927 37.8587 33.2567 37.532C33.63 37.2053 33.8167 36.762 33.8167 36.202C33.8167 35.642 33.63 35.1987 33.2567 34.872C32.8927 34.5453 32.426 34.382 31.8567 34.382C31.2967 34.382 30.83 34.5453 30.4567 34.872C30.0927 35.1987 29.9107 35.642 29.9107 36.202ZM29.8967 41.648V40.486H38.2127V45.092H36.7707V41.648H29.8967ZM49.9384 38.736H54.9504V39.898H43.4984V38.736H48.4824V37.322H44.9544V32.94H53.4804V37.322H49.9384V38.736ZM46.3684 34.088V36.174H52.0664V34.088H46.3684ZM44.7864 42.18V41.018H53.5364V45.078H52.0944V42.18H44.7864ZM62.4113 39.31H67.4233V40.472H55.9573V39.31H60.9693V38.162H57.4273V34.9H64.5533V33.836H57.3993V32.73H65.9813V35.936H58.8413V37.056H66.2333V38.162H62.4113V39.31ZM57.2453 42.488V41.326H66.0513V45.008H64.6093V42.488H57.2453Z" fill="black"/>
</svg>
