<svg width="53" height="47" viewBox="0 0 53 47" fill="none" xmlns="http://www.w3.org/2000/svg">
<path d="M10.668 35.44H12.348V36.63H10.668V40.928H9.212V31.436H10.668V35.44ZM7.392 36.854L5.978 36.7C6.10867 36.0187 6.188 35.426 6.216 34.922C6.25333 34.4087 6.27667 33.956 6.286 33.564H1.344V32.388H7.7V33.116C7.7 33.5453 7.686 34.0727 7.658 34.698C7.63933 35.314 7.55067 36.0327 7.392 36.854ZM8.442 37.484L8.54 38.534C7.88667 38.646 7.21467 38.7393 6.524 38.814C5.83333 38.8793 5.14733 38.9307 4.466 38.968C3.794 39.0053 3.14067 39.0333 2.506 39.052C1.87133 39.0613 1.27867 39.066 0.728 39.066L0.574 37.89H1.792C2.212 37.89 2.646 37.8807 3.094 37.862V35.272H4.522V37.82C5.194 37.792 5.85667 37.7547 6.51 37.708C7.17267 37.6613 7.81667 37.5867 8.442 37.484ZM3.934 40.088V42.664H11.074V43.84H2.478V40.088H3.934ZM22.1469 31.45H23.5889V38.618H22.1469V31.45ZM20.8589 36.98L20.1589 38.1C19.4309 37.8573 18.8009 37.5073 18.2689 37.05C17.7462 36.5833 17.3449 36.028 17.0649 35.384C16.7756 36.0653 16.3602 36.6627 15.8189 37.176C15.2869 37.6893 14.6429 38.0767 13.8869 38.338L13.1869 37.204C13.6816 37.036 14.1202 36.812 14.5029 36.532C14.8949 36.2427 15.2216 35.9207 15.4829 35.566C15.7536 35.2113 15.9589 34.8287 16.0989 34.418C16.2389 33.998 16.3089 33.5733 16.3089 33.144V31.926H17.7789V33.144C17.7789 33.564 17.8489 33.97 17.9889 34.362C18.1289 34.754 18.3296 35.118 18.5909 35.454C18.8522 35.79 19.1742 36.0887 19.5569 36.35C19.9396 36.6113 20.3736 36.8213 20.8589 36.98ZM15.3149 43.924V39.276H23.5889V43.924H15.3149ZM16.7289 40.424V42.776H22.1749V40.424H16.7289ZM37.7647 31.436H39.1367V44.064H37.7647V37.54H36.3227V43.476H34.9647V31.674H36.3227V36.364H37.7647V31.436ZM28.7627 40.788V32.822H33.6347V40.788H28.7627ZM30.1067 33.97V39.64H32.2907V33.97H30.1067ZM50.7556 31.828V35.734H42.2436V31.828H50.7556ZM49.3416 34.6V32.948H43.6716V34.6H49.3416ZM52.2396 37.764H47.2276V38.814H50.7976V41.824H43.6016V42.86H51.1616V43.966H42.1736V40.802H49.3836V39.906H42.1456V38.814H45.7716V37.764H40.7876V36.616H52.2396V37.764Z" fill="black"/>
<path d="M33.125 0C30.95 0 28.8625 1.01526 27.5 2.61962C26.1375 1.01526 24.05 0 21.875 0C18.025 0 15 3.03324 15 6.89373C15 11.6316 19.25 15.4921 25.6875 21.358L26.8261 22.3895C27.2082 22.7356 27.7908 22.7345 28.1716 22.3869L29.3125 21.3455C35.75 15.4921 40 11.6316 40 6.89373C40 3.03324 36.975 0 33.125 0ZM27.625 19.4905C27.556 19.5596 27.444 19.5596 27.375 19.4905C21.425 14.0883 17.5 10.5161 17.5 6.89373C17.5 4.38692 19.375 2.50681 21.875 2.50681C23.3953 2.50681 24.8844 3.28079 25.7697 4.45211C26.1929 5.01205 26.8004 5.46485 27.5023 5.46485C28.2081 5.46485 28.818 5.0068 29.243 4.44335C30.123 3.27693 31.6085 2.50681 33.125 2.50681C35.625 2.50681 37.5 4.38692 37.5 6.89373C37.5 10.5161 33.575 14.0883 27.625 19.4905Z" fill="#666666"/>
</svg>
