<svg width="17" height="16" viewBox="0 0 17 16" fill="none" xmlns="http://www.w3.org/2000/svg">
<path d="M8.57812 1.9C9.73812 1.9 10.6781 2.84 10.6781 4C10.6781 5.16 9.73812 6.1 8.57812 6.1C7.41813 6.1 6.47812 5.16 6.47812 4C6.47812 2.84 7.41813 1.9 8.57812 1.9ZM8.57812 10.9C11.5481 10.9 14.6781 12.36 14.6781 13V14.1H2.47813V13C2.47813 12.36 5.60812 10.9 8.57812 10.9ZM8.57812 0C6.36812 0 4.57812 1.79 4.57812 4C4.57812 6.21 6.36812 8 8.57812 8C10.7881 8 12.5781 6.21 12.5781 4C12.5781 1.79 10.7881 0 8.57812 0ZM8.57812 9C5.90812 9 0.578125 10.34 0.578125 13V16H16.5781V13C16.5781 10.34 11.2481 9 8.57812 9Z" fill="#F16341"/>
</svg>
