<svg width="53" height="48" viewBox="0 0 53 48" fill="none" xmlns="http://www.w3.org/2000/svg">
<path d="M10.136 32.436H11.508V45.064H10.136V38.54H8.694V44.476H7.336V32.674H8.694V37.364H10.136V32.436ZM1.134 41.788V33.822H6.006V41.788H1.134ZM2.478 34.97V40.64H4.662V34.97H2.478ZM23.1269 32.828V36.734H14.6149V32.828H23.1269ZM21.7129 35.6V33.948H16.0429V35.6H21.7129ZM24.6109 38.764H19.5989V39.814H23.1689V42.824H15.9729V43.86H23.5329V44.966H14.5449V41.802H21.7549V40.906H14.5169V39.814H18.1429V38.764H13.1589V37.616H24.6109V38.764ZM38.2967 36.44H39.9767V37.63H38.2967V41.928H36.8407V32.436H38.2967V36.44ZM35.0207 37.854L33.6067 37.7C33.7373 37.0187 33.8167 36.426 33.8447 35.922C33.882 35.4087 33.9053 34.956 33.9147 34.564H28.9727V33.388H35.3287V34.116C35.3287 34.5453 35.3147 35.0727 35.2867 35.698C35.268 36.314 35.1793 37.0327 35.0207 37.854ZM36.0707 38.484L36.1687 39.534C35.5153 39.646 34.8433 39.7393 34.1527 39.814C33.462 39.8793 32.776 39.9307 32.0947 39.968C31.4227 40.0053 30.7693 40.0333 30.1347 40.052C29.5 40.0613 28.9073 40.066 28.3567 40.066L28.2027 38.89H29.4207C29.8407 38.89 30.2747 38.8807 30.7227 38.862V36.272H32.1507V38.82C32.8227 38.792 33.4853 38.7547 34.1387 38.708C34.8013 38.6613 35.4453 38.5867 36.0707 38.484ZM31.5627 41.088V43.664H38.7027V44.84H30.1067V41.088H31.5627ZM49.7756 32.408H51.2316V45.106H49.7756V32.408ZM42.9716 38.246V40.906C43.9702 40.8967 44.9269 40.864 45.8416 40.808C46.7656 40.7427 47.7269 40.6307 48.7256 40.472L48.8796 41.648C48.3382 41.7413 47.8109 41.8207 47.2976 41.886C46.7842 41.942 46.2709 41.9887 45.7576 42.026C45.2442 42.054 44.7262 42.0727 44.2036 42.082C43.6902 42.0913 43.1536 42.096 42.5936 42.096H41.5156V37.084H45.9256V34.732H41.4876V33.556H47.3816V38.246H42.9716Z" fill="black"/>
<path d="M26.2824 5.55556V0H12.8198V25H39.745V5.55556H26.2824ZM18.2049 22.2222H15.5123V19.4444H18.2049V22.2222ZM18.2049 16.6667H15.5123V13.8889H18.2049V16.6667ZM18.2049 11.1111H15.5123V8.33333H18.2049V11.1111ZM18.2049 5.55556H15.5123V2.77778H18.2049V5.55556ZM23.5899 22.2222H20.8974V19.4444H23.5899V22.2222ZM23.5899 16.6667H20.8974V13.8889H23.5899V16.6667ZM23.5899 11.1111H20.8974V8.33333H23.5899V11.1111ZM23.5899 5.55556H20.8974V2.77778H23.5899V5.55556ZM37.0525 22.2222H26.2824V19.4444H28.9749V16.6667H26.2824V13.8889H28.9749V11.1111H26.2824V8.33333H37.0525V22.2222ZM34.36 11.1111H31.6675V13.8889H34.36V11.1111ZM34.36 16.6667H31.6675V19.4444H34.36V16.6667Z" fill="#666666"/>
</svg>
